<?xml version="1.0" encoding="utf-8"?>
<!-- Generator: Adobe Illustrator 24.0.1, SVG Export Plug-In . SVG Version: 6.00 Build 0)  -->
<svg version="1.1" id="Layer_1" xmlns="http://www.w3.org/2000/svg" xmlns:xlink="http://www.w3.org/1999/xlink" x="0px" y="0px"
	 viewBox="0 0 48 48" style="enable-background:new 0 0 48 48;" xml:space="preserve">
<style type="text/css">
	.st0{fill:#929799;}
</style>
<title>empathy</title>
<g>
	<path class="st0" d="M24,17.7c-4.6,0-8.3,3.7-8.3,8.3s3.7,8.3,8.3,8.3s8.3-3.7,8.3-8.3S28.6,17.7,24,17.7z M24,32.8
		c-3.8,0-6.8-3.1-6.8-6.8c0-3.8,3.1-6.8,6.8-6.8s6.8,3.1,6.8,6.8C30.8,29.8,27.8,32.8,24,32.8z"/>
	<path class="st0" d="M41.8,25.6C38.2,19.3,31.3,15.3,24,15.3s-14.2,4-17.8,10.3c-0.1,0.2-0.1,0.5,0,0.8C9.8,32.7,16.7,36.7,24,36.7
		s14.2-3.9,17.8-10.3C42,26.1,42,25.9,41.8,25.6z M24,35.2c-6.6,0-12.9-3.5-16.3-9.2c3.5-5.7,9.7-9.2,16.3-9.2s12.9,3.5,16.3,9.2
		C36.9,31.7,30.6,35.2,24,35.2z"/>
	<path class="st0" d="M27.8,22.9l-3.1,1.8v-3.6c0-0.4-0.3-0.8-0.8-0.8s-0.8,0.3-0.8,0.8v3.6L20,22.9c-0.4-0.2-0.8-0.1-1,0.3
		s-0.1,0.8,0.3,1l3.1,1.8l-3.1,1.8c-0.4,0.2-0.5,0.7-0.3,1c0.1,0.2,0.4,0.4,0.6,0.4c0.1,0,0.3,0,0.4-0.1l3.1-1.8v3.6
		c0,0.4,0.3,0.8,0.8,0.8s0.8-0.3,0.8-0.8v-3.6l3.1,1.8c0.1,0.1,0.2,0.1,0.4,0.1c0.3,0,0.5-0.1,0.7-0.4c0.2-0.4,0.1-0.8-0.3-1
		L25.5,26l3.1-1.8c0.4-0.2,0.5-0.7,0.3-1C28.7,22.8,28.2,22.7,27.8,22.9z"/>
</g>
</svg>
