<?xml version="1.0" encoding="utf-8"?>
<!-- Generator: Adobe Illustrator 24.0.1, SVG Export Plug-In . SVG Version: 6.00 Build 0)  -->
<svg version="1.1" id="Layer_1" xmlns="http://www.w3.org/2000/svg" xmlns:xlink="http://www.w3.org/1999/xlink" x="0px" y="0px"
	 viewBox="0 0 48 48" style="enable-background:new 0 0 48 48;" xml:space="preserve">
<style type="text/css">
	.st0{fill:none;stroke:#929799;stroke-width:1.6;stroke-linecap:round;stroke-linejoin:round;}
</style>
<title>somethingnew</title>
<g id="Layer_2_1_">
	<g id="레이어_3">
		<line class="st0" x1="20.3" y1="35.8" x2="27.5" y2="35.8"/>
		<line class="st0" x1="20.3" y1="38.3" x2="27.5" y2="38.3"/>
		<line class="st0" x1="23.9" y1="7.7" x2="23.9" y2="11.4"/>
		<g>
			<line class="st0" x1="10" y1="21.9" x2="13.7" y2="21.9"/>
			<line class="st0" x1="38" y1="22.2" x2="34.3" y2="22.2"/>
		</g>
		<g>
			<line class="st0" x1="13" y1="12.5" x2="15.6" y2="15.1"/>
			<line class="st0" x1="35" y1="12.5" x2="32.4" y2="15.1"/>
		</g>
		<path class="st0" d="M23.9,14.1c-4.2,0-7.6,3.4-7.6,7.6l0,0c0,1.4,0.4,2.8,1.1,4c0.8,1.1,1.7,2.2,2.8,3.1v2.8
			c0,0.7,0.6,1.4,1.3,1.4l0,0h4.7c0.7,0,1.3-0.6,1.3-1.3l0,0v-2.8c1-0.9,2-2,2.8-3.1c2.2-3.6,1.1-8.3-2.5-10.4
			C26.7,14.5,25.3,14.1,23.9,14.1z"/>
	</g>
</g>
</svg>
