<?xml version="1.0" encoding="utf-8"?>
<!-- Generator: Adobe Illustrator 22.1.0, SVG Export Plug-In . SVG Version: 6.00 Build 0)  -->
<svg version="1.1" id="레이어_1" xmlns="http://www.w3.org/2000/svg" xmlns:xlink="http://www.w3.org/1999/xlink" x="0px"
	 y="0px" viewBox="0 0 50 50" style="enable-background:new 0 0 50 50;" xml:space="preserve">
<style type="text/css">
	.st0{fill:none;stroke:#FFFFFF;stroke-miterlimit:10;}
	.st1{fill:#3F4449;}
	.st2{fill:#FFFFFF;}
</style>
<polyline class="st0" points="811.8,480.8 811.8,492.5 832.8,492.5 832.8,478.8 822.3,487.8 812.4,478 830,478 "/>
<circle class="st1" cx="25" cy="25" r="25"/>
<path class="st2" d="M25,9.5C16.5,9.5,9.5,16.5,9.5,25S16.5,40.5,25,40.5c8.5,0,15.5-6.9,15.5-15.5S33.5,9.5,25,9.5z M35.2,16.7
	c1.8,2.3,3,5.1,3,8.2c-0.4-0.1-4.8-1-9.2-0.4c-0.1-0.2-0.2-0.5-0.3-0.7c-0.3-0.6-0.6-1.3-0.9-1.9C32.7,19.9,34.9,17,35.2,16.7z
	 M25,11.8c3.4,0,6.4,1.3,8.8,3.3c-0.2,0.3-2.2,3-6.9,4.8c-2.2-4-4.6-7.2-4.9-7.7C22.9,11.9,23.9,11.8,25,11.8z M19.4,13
	c0.4,0.5,2.7,3.7,4.9,7.6c-6.2,1.6-11.6,1.6-12.2,1.6C12.9,18.2,15.7,14.8,19.4,13z M11.8,25c0-0.1,0-0.3,0-0.4
	c0.6,0,7,0.1,13.6-1.9c0.4,0.7,0.7,1.5,1.1,2.3c-0.2,0.1-0.4,0.1-0.5,0.2c-6.8,2.2-10.4,8.2-10.7,8.7C13.1,31.5,11.8,28.4,11.8,25z
	 M25,38.2c-3.1,0-5.9-1-8.1-2.8c0.2-0.5,2.9-5.7,10.4-8.3c0,0,0.1,0,0.1,0c1.9,4.8,2.6,8.9,2.8,10C28.6,37.9,26.8,38.2,25,38.2z
	 M32.4,36c-0.1-0.8-0.8-4.7-2.6-9.4c4.1-0.7,7.8,0.4,8.2,0.6C37.5,30.8,35.3,34,32.4,36z"/>
</svg>
