<?xml version="1.0" encoding="utf-8"?>
<!-- Generator: Adobe Illustrator 22.1.0, SVG Export Plug-In . SVG Version: 6.00 Build 0)  -->
<svg version="1.1" id="레이어_1" xmlns="http://www.w3.org/2000/svg" xmlns:xlink="http://www.w3.org/1999/xlink" x="0px"
	 y="0px" viewBox="0 0 50 50" style="enable-background:new 0 0 50 50;" xml:space="preserve">
<style type="text/css">
	.st0{fill:none;stroke:#FFFFFF;stroke-miterlimit:10;}
	.st1{fill:#3F4449;}
	.st2{fill:#FFFFFF;}
</style>
<polyline class="st0" points="811.8,399.5 811.8,411.2 832.8,411.2 832.8,397.4 822.3,406.4 812.4,396.7 830,396.7 "/>
<circle class="st1" cx="25" cy="25" r="25"/>
<g>
	<path class="st2" d="M15.5,12.5c-1.7,0-3,1.3-3,3c0,1.7,1.3,3,3,3c1.7,0,3-1.3,3-3C18.5,13.9,17.1,12.5,15.5,12.5z"/>
	<rect x="12.9" y="20.8" class="st2" width="5.2" height="16.7"/>
	<path class="st2" d="M31.3,20.4c-2.5,0-4.2,1.4-4.9,2.7h-0.1v-2.3h-5v16.7h5.2v-8.3c0-2.2,0.4-4.3,3.1-4.3c2.7,0,2.7,2.5,2.7,4.4
		v8.1h5.2v-9.2C37.5,23.8,36.5,20.4,31.3,20.4z"/>
</g>
</svg>
