<?xml version="1.0" encoding="utf-8"?>
<!-- Generator: Adobe Illustrator 22.1.0, SVG Export Plug-In . SVG Version: 6.00 Build 0)  -->
<svg version="1.1" id="레이어_1" xmlns="http://www.w3.org/2000/svg" xmlns:xlink="http://www.w3.org/1999/xlink" x="0px"
	 y="0px" viewBox="0 0 50 50" style="enable-background:new 0 0 50 50;" xml:space="preserve">
<style type="text/css">
	.st0{fill:#3F4449;}
	.st1{fill:none;stroke:#FFFFFF;stroke-miterlimit:10;}
	.st2{fill:#FFFFFF;}
</style>
<circle class="st0" cx="25" cy="25" r="25"/>
<polyline class="st1" points="893.2,480.8 893.2,492.5 914.1,492.5 914.1,478.8 903.6,487.8 893.7,478 911.3,478 "/>
<g>
	<path class="st2" d="M39,35.7H11c-0.6,0-1-0.4-1-1V20h2v13.7h26V18.4L25.7,29.1c-0.4,0.3-1,0.3-1.4,0L11,16
		c-0.3-0.3-0.4-0.7-0.2-1.1c0.2-0.4,0.5-0.6,0.9-0.6h23.6v2H14.2L25,27l13.3-11.5c0.3-0.3,0.7-0.3,1.1-0.2c0.4,0.2,0.6,0.5,0.6,0.9
		v18.4C40,35.3,39.5,35.7,39,35.7z"/>
</g>
</svg>
