<?xml version="1.0" encoding="utf-8"?>
<!-- Generator: Adobe Illustrator 22.1.0, SVG Export Plug-In . SVG Version: 6.00 Build 0)  -->
<svg version="1.1" id="레이어_1" xmlns="http://www.w3.org/2000/svg" xmlns:xlink="http://www.w3.org/1999/xlink" x="0px"
	 y="0px" viewBox="0 0 50 50" style="enable-background:new 0 0 50 50;" xml:space="preserve">
<style type="text/css">
	.st0{fill:none;stroke:#FFFFFF;stroke-miterlimit:10;}
	.st1{fill:#3F4449;}
	.st2{fill:#FFFFFF;}
</style>
<polyline class="st0" points="893.2,399.5 893.2,411.2 914.1,411.2 914.1,397.4 903.6,406.4 893.7,396.7 911.3,396.7 "/>
<circle class="st1" cx="25" cy="25" r="25"/>
<g>
	<path id="Behance" class="st2" d="M37.5,18.1h-7.8v-1.9h7.8L37.5,18.1C37.5,18.1,37.5,18.1,37.5,18.1z M24.6,26
		c0.5,0.8,0.8,1.7,0.8,2.8c0,1.1-0.3,2.2-0.9,3.1c-0.4,0.6-0.8,1.1-1.4,1.5c-0.6,0.5-1.3,0.8-2.2,1c-0.8,0.2-1.7,0.3-2.7,0.3H9.5
		V15.4h9.3c2.3,0,4,0.7,5,2.1c0.6,0.8,0.9,1.8,0.9,2.9c0,1.2-0.3,2.1-0.9,2.8c-0.3,0.4-0.8,0.8-1.5,1.1C23.3,24.7,24.1,25.2,24.6,26
		z M14,23H18c0.8,0,1.5-0.2,2-0.5c0.5-0.3,0.8-0.9,0.8-1.7c0-0.9-0.3-1.5-1-1.8c-0.6-0.2-1.4-0.3-2.3-0.3H14V23z M21.2,28.5
		c0-1-0.4-1.7-1.2-2.1c-0.5-0.2-1.1-0.3-1.9-0.3H14v5.1H18c0.8,0,1.5-0.1,2-0.3C20.8,30.5,21.2,29.7,21.2,28.5z M40.4,25.4
		c0.1,0.6,0.1,1.5,0.1,2.7H30.4c0.1,1.4,0.5,2.4,1.4,2.9c0.5,0.3,1.2,0.5,2,0.5c0.8,0,1.5-0.2,2-0.6c0.3-0.2,0.5-0.5,0.7-0.9h3.7
		c-0.1,0.8-0.5,1.7-1.3,2.5c-1.2,1.3-3,2-5.2,2c-1.8,0-3.5-0.6-4.9-1.7c-1.4-1.1-2.1-3-2.1-5.5c0-2.4,0.6-4.2,1.9-5.5
		c1.3-1.3,2.9-1.9,4.9-1.9c1.2,0,2.3,0.2,3.2,0.6c1,0.4,1.8,1.1,2.4,2C39.8,23.4,40.2,24.3,40.4,25.4z M36.7,25.8
		c-0.1-1-0.4-1.7-1-2.2c-0.6-0.5-1.3-0.7-2.1-0.7c-0.9,0-1.6,0.3-2.2,0.8c-0.5,0.5-0.8,1.2-1,2.1L36.7,25.8L36.7,25.8z"/>
</g>
</svg>
